# xmcd CD database file
# Generated: gio ott 16 19:43:14 2003 by KSCD
# 
# Track frame offsets:
#       150
#       37477
#       50790
#       67897
#       85737
#       108517
#       122292
#       150842
#       176175
#       197102
#
# Disc length: 2891 seconds
#
# Revision: 4
# Processed by: cddbd v1.4PL0 Copyright (c) Steve Scherf et al.
# Submitted via: Kscd 1.3.3
#
DISCID=840b490a
DTITLE=Various Artist - Soul and Blues
DYEAR=1900
DGENRE=
TTITLE0=Honky Tonk
TTITLE1=Farther on up the road
TTITLE2=Corinna Corinna
TTITLE3=She caught The Katy and left me a mule to ride
TTITLE4=Eight men and four women
TTITLE5=Baby, baby, baby
TTITLE6=You send me
TTITLE7=Nobody Knows You (When You're Down And Out)
TTITLE8=Drown yourself
TTITLE9=For the love of a woman
EXTD=
EXTT0=Jimmy Smith
EXTT1=Jimmy Smith
EXTT2=Albert King
EXTT3=Albert King
EXTT4=Little Milton
EXTT5=Jimmy Witherspoon
EXTT6=Hank Crawford
EXTT7=Ruth Brown
EXTT8=Staple Singers
EXTT9=Albert King
PLAYORDER=
